<svg width="20" height="21" viewBox="0 0 20 21" fill="none" xmlns="http://www.w3.org/2000/svg">
<path d="M1.22105 4.46843H14.1053M6.05263 7.68948V12.5211M9.27369 7.68948V12.5211M2.02632 4.46843L2.83158 14.1316C2.83158 14.5587 3.00126 14.9684 3.30329 15.2704C3.60532 15.5724 4.01497 15.7421 4.44211 15.7421H10.8842C11.3113 15.7421 11.721 15.5724 12.023 15.2704C12.3251 14.9684 12.4947 14.5587 12.4947 14.1316L13.3 4.46843M5.24737 4.46843V2.05264C5.24737 1.83907 5.33221 1.63425 5.48323 1.48323C5.63424 1.33222 5.83906 1.24738 6.05263 1.24738H9.27369C9.48725 1.24738 9.69208 1.33222 9.84309 1.48323C9.99411 1.63425 10.0789 1.83907 10.0789 2.05264V4.46843" stroke="#959595" stroke-width="2" stroke-linecap="round" stroke-linejoin="round"/>
</svg>
