<svg width="20" height="21" viewBox="0 0 21 22" fill="none" xmlns="http://www.w3.org/2000/svg">
<path d="M1.81053 9.85789H2.79474M10.6684 1V1.98421M18.5421 9.85789H19.5263M4.36948 3.55895L5.05843 4.2479M16.9674 3.55895L16.2784 4.2479M7.01315 16.0526V12.0263C7.01315 10.9585 7.43735 9.93436 8.19243 9.17928C8.94751 8.4242 9.97162 8 11.0395 8C12.1073 8 13.1314 8.4242 13.8865 9.17928C14.6416 9.93436 15.0658 10.9585 15.0658 12.0263V16.0526M6.00658 16.0526H16.0724C16.6283 16.0526 17.0789 16.5033 17.0789 17.0592V19.0723C17.0789 19.6283 16.6283 20.0789 16.0724 20.0789H6.00658C5.45066 20.0789 5 19.6283 5 19.0723V17.0592C5 16.5033 5.45066 16.0526 6.00658 16.0526Z" stroke="#959595" stroke-width="2" stroke-linecap="round" stroke-linejoin="round"/>
</svg>
