<svg width="12" height="20" viewBox="0 0 12 20" fill="none" xmlns="http://www.w3.org/2000/svg">
<path d="M1.90909 1C1.41797 1 0.968808 1.3864 1.0017 1.84L1.4554 13.18C1.4554 13.2914 1.5032 13.3982 1.58828 13.477C1.67336 13.5557 1.78876 13.6 1.90909 13.6C2.02942 13.6 2.14482 13.5557 2.2299 13.477C2.31499 13.3982 2.36279 13.2914 2.36279 13.18L2.81648 1.84C2.84937 1.3864 2.40022 1 1.90909 1Z" stroke="#FFD873" stroke-width="2" stroke-linecap="round" stroke-linejoin="round"/>
<path d="M1.90909 19C2.41117 19 2.81818 18.5971 2.81818 18.1C2.81818 17.6029 2.41117 17.2 1.90909 17.2C1.40701 17.2 1 17.6029 1 18.1C1 18.5971 1.40701 19 1.90909 19Z" stroke="#FFD873" stroke-width="2" stroke-linecap="round" stroke-linejoin="round"/>
<path d="M10.0909 1C9.59978 1 9.15063 1.3864 9.18352 1.84L9.63721 13.18C9.63721 13.2914 9.68501 13.3982 9.7701 13.477C9.85518 13.5557 9.97058 13.6 10.0909 13.6C10.2112 13.6 10.3266 13.5557 10.4117 13.477C10.4968 13.3982 10.5446 13.2914 10.5446 13.18L10.9983 1.84C11.0312 1.3864 10.582 1 10.0909 1Z" stroke="#FFD873" stroke-width="2" stroke-linecap="round" stroke-linejoin="round"/>
<path d="M10.0909 19C10.593 19 11 18.5971 11 18.1C11 17.6029 10.593 17.2 10.0909 17.2C9.58883 17.2 9.18182 17.6029 9.18182 18.1C9.18182 18.5971 9.58883 19 10.0909 19Z" stroke="#FFD873" stroke-width="2" stroke-linecap="round" stroke-linejoin="round"/>
</svg>
