<svg width="4" height="20" viewBox="0 0 4 20" fill="none" xmlns="http://www.w3.org/2000/svg">
<path d="M2 1C1.45976 1 0.965689 1.3864 1.00187 1.84L1.50094 13.18C1.50094 13.2914 1.55352 13.3982 1.64711 13.477C1.7407 13.5557 1.86764 13.6 2 13.6C2.13236 13.6 2.2593 13.5557 2.35289 13.477C2.44648 13.3982 2.49906 13.2914 2.49906 13.18L2.99813 1.84C3.03431 1.3864 2.54024 1 2 1Z" stroke="#77E396" stroke-width="2" stroke-linecap="round" stroke-linejoin="round"/>
<path d="M2 19C2.55228 19 3 18.5971 3 18.1C3 17.6029 2.55228 17.2 2 17.2C1.44772 17.2 1 17.6029 1 18.1C1 18.5971 1.44772 19 2 19Z" stroke="#77E396" stroke-width="2" stroke-linecap="round" stroke-linejoin="round"/>
</svg>
