<svg width="20" height="20" viewBox="0 0 20 20" fill="none" xmlns="http://www.w3.org/2000/svg">
<path d="M1.9 1C1.41379 1 0.96912 1.3864 1.00168 1.84L1.45084 13.18C1.45084 13.2914 1.49816 13.3982 1.5824 13.477C1.66663 13.5557 1.78088 13.6 1.9 13.6C2.01912 13.6 2.13337 13.5557 2.2176 13.477C2.30184 13.3982 2.34916 13.2914 2.34916 13.18L2.79832 1.84C2.83088 1.3864 2.38621 1 1.9 1Z" stroke="#FF7373" stroke-width="2" stroke-linecap="round" stroke-linejoin="round"/>
<path d="M1.9 19C2.39706 19 2.8 18.5971 2.8 18.1C2.8 17.6029 2.39706 17.2 1.9 17.2C1.40294 17.2 1 17.6029 1 18.1C1 18.5971 1.40294 19 1.9 19Z" stroke="#FF7373" stroke-width="2" stroke-linecap="round" stroke-linejoin="round"/>
<path d="M10 1C9.51379 1 9.06912 1.3864 9.10168 1.84L9.55084 13.18C9.55084 13.2914 9.59816 13.3982 9.6824 13.477C9.76663 13.5557 9.88088 13.6 10 13.6C10.1191 13.6 10.2334 13.5557 10.3176 13.477C10.4018 13.3982 10.4492 13.2914 10.4492 13.18L10.8983 1.84C10.9309 1.3864 10.4862 1 10 1Z" stroke="#FF7373" stroke-width="2" stroke-linecap="round" stroke-linejoin="round"/>
<path d="M10 19C10.4971 19 10.9 18.5971 10.9 18.1C10.9 17.6029 10.4971 17.2 10 17.2C9.50294 17.2 9.1 17.6029 9.1 18.1C9.1 18.5971 9.50294 19 10 19Z" stroke="#FF7373" stroke-width="2" stroke-linecap="round" stroke-linejoin="round"/>
<path d="M18.1 1C17.6138 1 17.1691 1.3864 17.2017 1.84L17.6508 13.18C17.6508 13.2914 17.6982 13.3982 17.7824 13.477C17.8666 13.5557 17.9809 13.6 18.1 13.6C18.2191 13.6 18.3334 13.5557 18.4176 13.477C18.5018 13.3982 18.5492 13.2914 18.5492 13.18L18.9983 1.84C19.0309 1.3864 18.5862 1 18.1 1Z" stroke="#FF7373" stroke-width="2" stroke-linecap="round" stroke-linejoin="round"/>
<path d="M18.1 19C18.5971 19 19 18.5971 19 18.1C19 17.6029 18.5971 17.2 18.1 17.2C17.6029 17.2 17.2 17.6029 17.2 18.1C17.2 18.5971 17.6029 19 18.1 19Z" stroke="#FF7373" stroke-width="2" stroke-linecap="round" stroke-linejoin="round"/>
</svg>
